<svg xmlns="http://www.w3.org/2000/svg" xmlns:xlink="http://www.w3.org/1999/xlink" width="114.636" height="114.636" viewBox="0 0 114.636 114.636">
  <defs>
    <radialGradient id="radial-gradient" cx="0.076" cy="0.019" r="1.465" gradientTransform="translate(0.001)" gradientUnits="objectBoundingBox">
      <stop offset="0" stop-color="#f6f6f7"/>
      <stop offset="0.477" stop-color="#f9f9fa"/>
      <stop offset="0.715" stop-color="#fff"/>
    </radialGradient>
  </defs>
  <g id="Grupo_148756" data-name="Grupo 148756" transform="translate(-582.991 -1116)">
    <g id="Grupo_148729" data-name="Grupo 148729" transform="translate(582.991 1116)">
      <g id="Grupo_18423" data-name="Grupo 18423" transform="translate(0 0)">
        <g id="Grupo_18421" data-name="Grupo 18421">
          <g id="Grupo_18420" data-name="Grupo 18420">
            <g id="Grupo_18419" data-name="Grupo 18419">
              <path id="Trazado_40936" data-name="Trazado 40936" d="M309.259,2203.037a57.318,57.318,0,1,1-57.317-57.316A57.317,57.317,0,0,1,309.259,2203.037Z" transform="translate(-194.623 -2145.721)" fill="#fff"/>
            </g>
          </g>
        </g>
        <path id="Trazado_40937" data-name="Trazado 40937" d="M308.648,2202.372a57.316,57.316,0,1,0-57.317,57.319A57.091,57.091,0,0,0,308.648,2202.372Z" transform="translate(-194.013 -2145.056)" fill="url(#radial-gradient)"/>
        <path id="Trazado_40938" data-name="Trazado 40938" d="M289.672,2196.986a43.75,43.75,0,1,0-43.75,43.75A43.587,43.587,0,0,0,289.672,2196.986Z" transform="translate(-188.43 -2139.479)" fill="none" stroke="#00223d" stroke-miterlimit="10" stroke-width="4"/>
        <g id="Grupo_18422" data-name="Grupo 18422" transform="translate(10.154 32.18)">
          <path id="Trazado_40939" data-name="Trazado 40939" d="M299.231,2164.488a57.325,57.325,0,0,1-98.686,57.081,57.143,57.143,0,0,0,98.686-57.081Z" transform="translate(-200.545 -2164.488)" fill="#eceef0"/>
        </g>
      </g>
    </g>
    <g id="Grupo_28520" data-name="Grupo 28520" transform="translate(622.193 1151.488)">
      <path id="Trazado_67883" data-name="Trazado 67883" d="M228.187,212.924a4.683,4.683,0,1,1,4.684-4.684A4.689,4.689,0,0,1,228.187,212.924Zm0-8.117a3.433,3.433,0,1,0,3.433,3.433A3.437,3.437,0,0,0,228.187,204.807Z" transform="translate(-214.461 -197.967)" fill="#12263f"/>
      <path id="Trazado_67884" data-name="Trazado 67884" d="M228.187,247.182a4.683,4.683,0,1,1,4.684-4.684A4.689,4.689,0,0,1,228.187,247.182Zm0-8.117a3.433,3.433,0,1,0,3.433,3.433A3.437,3.437,0,0,0,228.187,239.065Z" transform="translate(-214.461 -219.2)" fill="#12263f"/>
      <path id="Trazado_67885" data-name="Trazado 67885" d="M228.187,281.441a4.683,4.683,0,1,1,4.684-4.684A4.689,4.689,0,0,1,228.187,281.441Zm0-8.116a3.433,3.433,0,1,0,3.433,3.433A3.436,3.436,0,0,0,228.187,273.324Z" transform="translate(-214.461 -240.434)" fill="#12263f"/>
      <path id="Trazado_67886" data-name="Trazado 67886" d="M205.528,199.17h-4.1a1.706,1.706,0,1,1,0-3.412h4.1a1.706,1.706,0,1,1,0,3.412Zm-4.1-2.161a.455.455,0,1,0,0,.911h4.1a.455.455,0,1,0,0-.911Z" transform="translate(-199.72 -193.133)" fill="#12263f"/>
      <path id="Trazado_67887" data-name="Trazado 67887" d="M205.528,219.125h-4.1a1.706,1.706,0,0,1,0-3.412h4.1a1.706,1.706,0,0,1,0,3.412Zm-4.1-2.161a.455.455,0,1,0,0,.911h4.1a.455.455,0,0,0,0-.911Z" transform="translate(-199.72 -205.502)" fill="#12263f"/>
      <path id="Trazado_67888" data-name="Trazado 67888" d="M205.528,239.08h-4.1a1.706,1.706,0,1,1,0-3.412h4.1a1.706,1.706,0,1,1,0,3.412Zm-4.1-2.161a.456.456,0,0,0,0,.911h4.1a.456.456,0,0,0,0-.911Z" transform="translate(-199.72 -217.87)" fill="#12263f"/>
      <path id="Trazado_67889" data-name="Trazado 67889" d="M205.528,259.036h-4.1a1.706,1.706,0,0,1,0-3.412h4.1a1.706,1.706,0,0,1,0,3.412Zm-4.1-2.161a.456.456,0,0,0,0,.911h4.1a.456.456,0,0,0,0-.911Z" transform="translate(-199.72 -230.238)" fill="#12263f"/>
      <path id="Trazado_67890" data-name="Trazado 67890" d="M205.528,278.992h-4.1a1.706,1.706,0,0,1,0-3.412h4.1a1.706,1.706,0,0,1,0,3.412Zm-4.1-2.161a.455.455,0,1,0,0,.911h4.1a.455.455,0,1,0,0-.911Z" transform="translate(-199.72 -242.607)" fill="#12263f"/>
      <path id="Trazado_67891" data-name="Trazado 67891" d="M205.528,298.948h-4.1a1.706,1.706,0,1,1,0-3.412h4.1a1.706,1.706,0,1,1,0,3.412Zm-4.1-2.161a.455.455,0,1,0,0,.911h4.1a.455.455,0,0,0,0-.911Z" transform="translate(-199.72 -254.976)" fill="#12263f"/>
      <path id="Trazado_67892" data-name="Trazado 67892" d="M242.79,235.451H210.344a1.461,1.461,0,0,1-1.458-1.459V232.2a.625.625,0,0,1,.625-.625h1.7a.455.455,0,0,0,.455-.481.5.5,0,0,0-.516-.43h-1.637a.625.625,0,0,1-.625-.625v-5.425a.625.625,0,0,1,.625-.625h1.7a.455.455,0,0,0,.455-.481.5.5,0,0,0-.516-.43h-1.637a.625.625,0,0,1-.625-.625v-5.425a.625.625,0,0,1,.625-.625h1.7a.455.455,0,0,0,.455-.481.5.5,0,0,0-.516-.43h-1.637a.625.625,0,0,1-.625-.625V209.44a.625.625,0,0,1,.625-.625h1.7a.455.455,0,0,0,.455-.481.5.5,0,0,0-.516-.431h-1.637a.625.625,0,0,1-.625-.625v-5.426a.625.625,0,0,1,.625-.625h1.7a.455.455,0,0,0,.455-.481.5.5,0,0,0-.516-.43h-1.637a.625.625,0,0,1-.625-.625v-5.425a.625.625,0,0,1,.625-.625h1.7a.455.455,0,0,0,.455-.481.5.5,0,0,0-.516-.43h-1.637a.625.625,0,0,1-.625-.625v-1.791a1.46,1.46,0,0,1,1.458-1.458H242.79a1.46,1.46,0,0,1,1.459,1.458v43.679A1.461,1.461,0,0,1,242.79,235.451Zm-32.654-2.625v1.166a.209.209,0,0,0,.208.208H242.79a.208.208,0,0,0,.208-.208V190.313a.208.208,0,0,0-.208-.208H210.344a.209.209,0,0,0-.208.208v1.166h1.012a1.738,1.738,0,0,1,1.765,1.615,1.692,1.692,0,0,1-.466,1.265,1.713,1.713,0,0,1-1.238.532h-1.073v4.175h1.012a1.738,1.738,0,0,1,1.765,1.615,1.692,1.692,0,0,1-.466,1.265,1.713,1.713,0,0,1-1.238.532h-1.073v4.175h1.012a1.738,1.738,0,0,1,1.765,1.615,1.691,1.691,0,0,1-.466,1.265,1.712,1.712,0,0,1-1.238.532h-1.073v4.175h1.012a1.738,1.738,0,0,1,1.765,1.615,1.691,1.691,0,0,1-.466,1.265,1.711,1.711,0,0,1-1.238.532h-1.073v4.175h1.012a1.738,1.738,0,0,1,1.765,1.615,1.691,1.691,0,0,1-.466,1.265,1.711,1.711,0,0,1-1.238.532h-1.073v4.175h1.012a1.737,1.737,0,0,1,1.765,1.615,1.692,1.692,0,0,1-.466,1.265,1.713,1.713,0,0,1-1.238.532Z" transform="translate(-205.401 -188.855)" fill="#12263f"/>
      <path id="Trazado_67893" data-name="Trazado 67893" d="M234.8,231.063a.625.625,0,0,1-.625-.625V225.53a.625.625,0,1,1,1.25,0v4.908A.625.625,0,0,1,234.8,231.063Z" transform="translate(-221.077 -211.199)" fill="#12263f"/>
      <path id="Trazado_67894" data-name="Trazado 67894" d="M234.8,265.322a.625.625,0,0,1-.625-.625v-4.908a.625.625,0,1,1,1.25,0V264.7A.625.625,0,0,1,234.8,265.322Z" transform="translate(-221.077 -232.432)" fill="#12263f"/>
      <path id="Trazado_67895" data-name="Trazado 67895" d="M255.011,208.181h-1.876a.625.625,0,0,1,0-1.25h1.876a.625.625,0,0,1,0,1.25Z" transform="translate(-232.439 -200.059)" fill="#12263f"/>
      <path id="Trazado_67896" data-name="Trazado 67896" d="M271.25,208.181h-3.631a.625.625,0,0,1,0-1.25h3.631a.625.625,0,0,1,0,1.25Z" transform="translate(-241.417 -200.059)" fill="#12263f"/>
      <path id="Trazado_67897" data-name="Trazado 67897" d="M288.6,208.181h-1.875a.625.625,0,0,1,0-1.25H288.6a.625.625,0,0,1,0,1.25Z" transform="translate(-253.256 -200.059)" fill="#12263f"/>
      <path id="Trazado_67898" data-name="Trazado 67898" d="M267.78,222.781H253.135a.625.625,0,1,1,0-1.25H267.78a.625.625,0,0,1,0,1.25Z" transform="translate(-232.439 -209.108)" fill="#e9027d"/>
      <path id="Trazado_67899" data-name="Trazado 67899" d="M267.78,242.439H253.135a.625.625,0,0,1,0-1.25H267.78a.625.625,0,0,1,0,1.25Z" transform="translate(-232.439 -221.292)" fill="#0284c6"/>
      <path id="Trazado_67900" data-name="Trazado 67900" d="M267.78,257.039H253.135a.625.625,0,0,1,0-1.25H267.78a.625.625,0,0,1,0,1.25Z" transform="translate(-232.439 -230.341)" fill="#12263f"/>
      <path id="Trazado_67901" data-name="Trazado 67901" d="M267.78,276.7H253.135a.625.625,0,0,1,0-1.25H267.78a.625.625,0,0,1,0,1.25Z" transform="translate(-232.439 -242.525)" fill="#12263f"/>
      <path id="Trazado_67902" data-name="Trazado 67902" d="M267.78,291.3H253.135a.625.625,0,0,1,0-1.25H267.78a.625.625,0,0,1,0,1.25Z" transform="translate(-232.439 -251.574)" fill="#12263f"/>
    </g>
    <path id="Trazado_188334" data-name="Trazado 188334" d="M15.585,23.644a.689.689,0,0,1-.488-.2l-4.106-4.107a.69.69,0,0,1,.976-.976l4.107,4.107a.69.69,0,0,1-.488,1.178" transform="translate(622.534 1141.229)" fill="#f7c242"/>
    <path id="Trazado_188335" data-name="Trazado 188335" d="M15.585,23.644a.689.689,0,0,1-.488-.2l-4.106-4.107a.69.69,0,0,1,.976-.976l4.107,4.107a.69.69,0,0,1-.488,1.178" transform="translate(656.966 1148.598) rotate(90)" fill="#f7c242"/>
  </g>
</svg>
