<svg xmlns="http://www.w3.org/2000/svg" xmlns:xlink="http://www.w3.org/1999/xlink" width="114.636" height="114.636" viewBox="0 0 114.636 114.636">
  <defs>
    <radialGradient id="radial-gradient" cx="0.076" cy="0.019" r="1.465" gradientTransform="translate(0.001)" gradientUnits="objectBoundingBox">
      <stop offset="0" stop-color="#f6f6f7"/>
      <stop offset="0.477" stop-color="#f9f9fa"/>
      <stop offset="0.715" stop-color="#fff"/>
    </radialGradient>
    <linearGradient id="linear-gradient" x1="0.5" x2="0.5" y2="1" gradientUnits="objectBoundingBox">
      <stop offset="0" stop-color="#4dd0e1"/>
      <stop offset="1" stop-color="#039be5"/>
    </linearGradient>
  </defs>
  <g id="Grupo_148757" data-name="Grupo 148757" transform="translate(-899.991 -1116)">
    <g id="Grupo_148730" data-name="Grupo 148730" transform="translate(899.991 1116)">
      <g id="Grupo_18423" data-name="Grupo 18423" transform="translate(0 0)">
        <g id="Grupo_18421" data-name="Grupo 18421">
          <g id="Grupo_18420" data-name="Grupo 18420">
            <g id="Grupo_18419" data-name="Grupo 18419">
              <path id="Trazado_40936" data-name="Trazado 40936" d="M309.259,2203.037a57.318,57.318,0,1,1-57.317-57.316A57.317,57.317,0,0,1,309.259,2203.037Z" transform="translate(-194.623 -2145.721)" fill="#fff"/>
            </g>
          </g>
        </g>
        <path id="Trazado_40937" data-name="Trazado 40937" d="M308.648,2202.372a57.316,57.316,0,1,0-57.317,57.319A57.091,57.091,0,0,0,308.648,2202.372Z" transform="translate(-194.013 -2145.056)" fill="url(#radial-gradient)"/>
        <path id="Trazado_40938" data-name="Trazado 40938" d="M289.672,2196.986a43.75,43.75,0,1,0-43.75,43.75A43.587,43.587,0,0,0,289.672,2196.986Z" transform="translate(-188.43 -2139.479)" fill="none" stroke="#00223d" stroke-miterlimit="10" stroke-width="4"/>
        <g id="Grupo_18422" data-name="Grupo 18422" transform="translate(10.154 32.18)">
          <path id="Trazado_40939" data-name="Trazado 40939" d="M299.231,2164.488a57.325,57.325,0,0,1-98.686,57.081,57.143,57.143,0,0,0,98.686-57.081Z" transform="translate(-200.545 -2164.488)" fill="#eceef0"/>
        </g>
      </g>
    </g>
    <g id="_83oj6T" data-name="83oj6T" transform="translate(-1942.548 3259.966)">
      <g id="Grupo_143141" data-name="Grupo 143141" transform="translate(2875.463 -2112.042)">
        <path id="Trazado_184357" data-name="Trazado 184357" d="M2875.463-2070.263c1.355-3.34,2.562-4.144,6.219-4.145,2.369,0,4.738,0,7.106,0,.735,0,1.423.1,1.422,1.033,0,.9-.668,1.073-1.407,1.074-2.67,0-5.339-.005-8.009,0a2.983,2.983,0,0,0-3.246,3.219q-.023,15.736,0,31.472a3.178,3.178,0,0,0,3.294,3.4c9.664.028,19.327.012,28.991.009a5.239,5.239,0,0,0,.588-.085v-1.2c0-2.444-.02-4.888.006-7.332a5.16,5.16,0,0,1,5.091-5.118c1.015-.018,2.031.016,3.045-.01.752-.019,1.324.252,1.3,1.041-.021.765-.6,1.052-1.341,1.038q-1.41-.027-2.82,0a3.116,3.116,0,0,0-3.208,3.207c-.025,2.215-.006,4.429-.006,6.8a7.6,7.6,0,0,0,.674-.522c3.46-3.453,6.929-6.9,10.351-10.387a2.455,2.455,0,0,0,.627-1.556c.042-6.768.015-13.537.054-20.3a1.762,1.762,0,0,1,.611-1.372c.338-.161.95.254,1.442.416v23.024l-14.447,14.446h-31.827a5.738,5.738,0,0,1-4.514-4.515Z" transform="translate(-2875.463 2082.904)" fill="#12263f"/>
        <path id="Trazado_184358" data-name="Trazado 184358" d="M2965.758-2112.042a2.626,2.626,0,0,1,1.592,2.8c-.065,1.761,0,3.526-.02,5.29a2.217,2.217,0,0,1-2.491,2.5q-5.966.026-11.932,0a2.217,2.217,0,0,1-2.49-2.5c-.015-1.763.047-3.529-.021-5.29a2.619,2.619,0,0,1,1.592-2.8Zm-13.22,8.423h12.631v-6.275h-12.631Z" transform="translate(-2933.479 2112.042)" fill="#e9027d"/>
        <path id="Trazado_184359" data-name="Trazado 184359" d="M2958.908-2045.2c-1.991,0-3.981.01-5.972,0-1.7-.011-2.462-.785-2.473-2.495-.013-1.878-.016-3.756,0-5.635a2.149,2.149,0,0,1,2.438-2.418q6.029-.022,12.058,0a2.148,2.148,0,0,1,2.416,2.44c.017,1.916.02,3.831,0,5.747a2.123,2.123,0,0,1-2.38,2.357C2962.964-2045.188,2960.936-2045.2,2958.908-2045.2Zm6.344-2.137v-6.253h-12.666v6.253Z" transform="translate(-2933.524 2068.467)" fill="url(#linear-gradient)"/>
        <path id="Trazado_184360" data-name="Trazado 184360" d="M2958.84-1988.843c-2.028,0-4.056.015-6.083,0a2.07,2.07,0,0,1-2.3-2.3q-.037-2.929,0-5.858a2.048,2.048,0,0,1,2.27-2.321q6.2-.025,12.391,0a2.03,2.03,0,0,1,2.245,2.231q.042,2.984,0,5.97a2.075,2.075,0,0,1-2.325,2.278C2962.97-1988.829,2960.9-1988.843,2958.84-1988.843Zm-6.254-8.364v6.2h12.624v-6.2Z" transform="translate(-2933.514 2024.779)" fill="#12263f"/>
        <path id="Trazado_184361" data-name="Trazado 184361" d="M3038.5-2078.06a11.94,11.94,0,0,1,1.256.889c.517.468.667,1.14.063,1.535a1.56,1.56,0,0,1-1.463-.073,39.992,39.992,0,0,1-3.049-3,1.046,1.046,0,0,1,.031-1.6c1-1.016,1.972-2.075,3.059-2.993.3-.255.968-.08,1.467-.1a3.751,3.751,0,0,1-.053,1.492c-.211.43-.758.7-1.158,1.032l.141.314c1.249,0,2.5.067,3.741-.046a1.32,1.32,0,0,0,.834-.971c.069-2.816.051-5.636.036-8.454,0-.874-.569-1.129-1.358-1.123-1.917.014-3.833,0-5.749.007-.794,0-1.42-.281-1.267-1.141a1.424,1.424,0,0,1,1.039-.88c2.214-.079,4.434-.084,6.649-.013a2.84,2.84,0,0,1,2.731,2.786q.08,4.564,0,9.13a2.866,2.866,0,0,1-2.854,2.777c-1.238.04-2.478.03-3.718.046-.021,0-.041.056-.062.086Z" transform="translate(-2998.948 2097.483)" fill="#12263f"/>
        <path id="Trazado_184362" data-name="Trazado 184362" d="M2901.029-2022.268c-1.073,0-2.147.006-3.22,0-2.337-.015-3.472-1.13-3.481-3.436-.01-2.668-.013-5.336,0-8a3.052,3.052,0,0,1,3.283-3.322c1.916-.021,3.833,0,5.749-.008.74,0,1.433.125,1.45,1.02.021.991-.719,1.061-1.5,1.052-1.8-.021-3.608.013-5.41-.014-1.017-.015-1.537.361-1.524,1.448q.047,3.889,0,7.778c-.012,1.007.4,1.448,1.411,1.416,1.048-.034,2.1-.007,3.437-.007-.508-.528-.857-.882-1.2-1.244-.471-.5-.663-1.151-.062-1.552a1.556,1.556,0,0,1,1.464.057,39.626,39.626,0,0,1,3.055,3,1.105,1.105,0,0,1-.076,1.7c-.948.964-1.9,1.924-2.866,2.871-.521.511-1.134.683-1.677.09a1.019,1.019,0,0,1,.212-1.578c.366-.318.787-.574,1.183-.858Z" transform="translate(-2890.063 2053.97)" fill="#12263f"/>
        <path id="Trazado_184363" data-name="Trazado 184363" d="M2907.463-1938.507c1.989,0,3.978-.016,5.966.005,1.742.019,2.417.728,2.431,2.481.028,3.569-.214,3.81-3.814,3.81-3.452,0-6.9.005-10.356,0-2.014,0-2.669-.676-2.682-2.713,0-.338,0-.675,0-1.013.024-1.867.709-2.552,2.6-2.565C2903.561-1938.518,2905.511-1938.507,2907.463-1938.507Zm-6.29,4.1h12.551v-1.953h-12.551Z" transform="translate(-2893.691 1977.682)" fill="#12263f"/>
        <path id="Trazado_184364" data-name="Trazado 184364" d="M2987.068-1936.4c-.788,0-1.577.007-2.365,0-.675-.009-1.211-.266-1.237-1.013s.487-1.052,1.174-1.057q2.477-.019,4.955,0c.692,0,1.186.287,1.167,1.055s-.536,1.014-1.217,1.019C2988.719-1936.4,2987.894-1936.4,2987.068-1936.4Z" transform="translate(-2959.087 1977.659)" fill="#12263f"/>
        <path id="Trazado_184365" data-name="Trazado 184365" d="M2985.185-1917.841c-.874,0-1.671-.029-1.676-1.021,0-.953.744-1.082,1.517-1.091s1.527.126,1.552,1.061C2986.6-1917.909,2985.823-1917.826,2985.185-1917.841Z" transform="translate(-2959.12 1963.313)" fill="#12263f"/>
        <path id="Trazado_184366" data-name="Trazado 184366" d="M3003.817-1917.825c-.757,0-1.512-.075-1.47-1.084.04-.983.809-1.024,1.552-1.026.77,0,1.5.13,1.473,1.106C3005.345-1917.821,3004.551-1917.832,3003.817-1917.825Z" transform="translate(-2973.704 1963.298)" fill="#12263f"/>
      </g>
    </g>
  </g>
</svg>
