<svg id="Grupo_143641" data-name="Grupo 143641" xmlns="http://www.w3.org/2000/svg" width="12.485" height="13.126" viewBox="0 0 12.485 13.126">
  <path id="Trazado_113196" data-name="Trazado 113196" d="M2475.536,670.189c2.1-.968,3.781-1.766,5.485-2.51a1.709,1.709,0,0,1,1.188-.132c1.842.784,3.649,1.649,5.812,2.645-2.186,1-4.047,1.857-5.925,2.683a1.042,1.042,0,0,1-.751-.043C2479.515,672.018,2477.7,671.177,2475.536,670.189Z" transform="translate(-2475.536 -667.485)" fill="#039be5"/>
  <path id="Trazado_113197" data-name="Trazado 113197" d="M2476.152,685.819a1.917,1.917,0,0,1,2.689-.422c.088.058.2.088.279.152a4.722,4.722,0,0,0,6.218-.026,1.9,1.9,0,0,1,2.876.307c-1.794.9-3.53,1.816-5.314,2.628a1.98,1.98,0,0,1-1.466-.023C2479.7,687.643,2478.007,686.75,2476.152,685.819Z" transform="translate(-2475.954 -679.387)" fill="#039be5"/>
  <path id="Trazado_113198" data-name="Trazado 113198" d="M2488.219,697.941c-1.84.916-3.635,1.838-5.461,2.691a1.559,1.559,0,0,1-1.172-.007c-1.819-.852-3.607-1.771-5.459-2.693a1.9,1.9,0,0,1,2.663-.435c.088.059.2.09.28.154a4.756,4.756,0,0,0,6.242,0A1.936,1.936,0,0,1,2488.219,697.941Z" transform="translate(-2475.938 -687.617)" fill="#039be5"/>
</svg>
