<svg xmlns="http://www.w3.org/2000/svg" xmlns:xlink="http://www.w3.org/1999/xlink" width="114.636" height="114.636" viewBox="0 0 114.636 114.636">
  <defs>
    <radialGradient id="radial-gradient" cx="0.076" cy="0.019" r="1.465" gradientTransform="translate(0.001)" gradientUnits="objectBoundingBox">
      <stop offset="0" stop-color="#f6f6f7"/>
      <stop offset="0.477" stop-color="#f9f9fa"/>
      <stop offset="0.715" stop-color="#fff"/>
    </radialGradient>
    <clipPath id="clip-path">
      <rect id="Rectángulo_44023" data-name="Rectángulo 44023" width="38.577" height="57.899" fill="none"/>
    </clipPath>
  </defs>
  <g id="Grupo_149939" data-name="Grupo 149939" transform="translate(-270.991 -2297)">
    <g id="Grupo_148755" data-name="Grupo 148755" transform="translate(1 1181)">
      <g id="Grupo_148728" data-name="Grupo 148728" transform="translate(269.991 1116)">
        <g id="Grupo_18423" data-name="Grupo 18423" transform="translate(0 0)">
          <g id="Grupo_18421" data-name="Grupo 18421">
            <g id="Grupo_18420" data-name="Grupo 18420">
              <g id="Grupo_18419" data-name="Grupo 18419">
                <path id="Trazado_40936" data-name="Trazado 40936" d="M309.259,2203.037a57.318,57.318,0,1,1-57.317-57.316A57.317,57.317,0,0,1,309.259,2203.037Z" transform="translate(-194.623 -2145.721)" fill="#fff"/>
              </g>
            </g>
          </g>
          <path id="Trazado_40937" data-name="Trazado 40937" d="M308.648,2202.372a57.316,57.316,0,1,0-57.317,57.319A57.091,57.091,0,0,0,308.648,2202.372Z" transform="translate(-194.013 -2145.056)" fill="url(#radial-gradient)"/>
          <path id="Trazado_40938" data-name="Trazado 40938" d="M289.672,2196.986a43.75,43.75,0,1,0-43.75,43.75A43.587,43.587,0,0,0,289.672,2196.986Z" transform="translate(-188.43 -2139.479)" fill="none" stroke="#00223d" stroke-miterlimit="10" stroke-width="4"/>
          <g id="Grupo_18422" data-name="Grupo 18422" transform="translate(10.154 32.18)">
            <path id="Trazado_40939" data-name="Trazado 40939" d="M299.231,2164.488a57.325,57.325,0,0,1-98.686,57.081,57.143,57.143,0,0,0,98.686-57.081Z" transform="translate(-200.545 -2164.488)" fill="#eceef0"/>
          </g>
        </g>
      </g>
      <g id="Grupo_149929" data-name="Grupo 149929" transform="translate(309.991 1144)">
        <g id="Grupo_148741" data-name="Grupo 148741" transform="translate(0 0)" clip-path="url(#clip-path)">
          <path id="Trazado_187111" data-name="Trazado 187111" d="M22.982,4.565a.691.691,0,0,1-.69-.69V3.693a2.313,2.313,0,0,0-4.626,0v.181a.69.69,0,1,1-1.38,0V3.693a3.693,3.693,0,0,1,7.387,0v.181a.691.691,0,0,1-.69.69" transform="translate(-0.691 0)" fill="#344154"/>
          <path id="Trazado_187112" data-name="Trazado 187112" d="M24.908,12.955a1.778,1.778,0,0,1-1.759-1.544l-.017-.135a3.1,3.1,0,0,0-6.15,0l-.017.135a1.777,1.777,0,0,1-1.758,1.544h-.434A1.776,1.776,0,0,1,13,11.182V4.851a1.528,1.528,0,0,1,1.527-1.526H25.154a1.529,1.529,0,0,1,1.527,1.526v6.331a1.776,1.776,0,0,1-1.773,1.773M20.057,7.2A4.492,4.492,0,0,1,24.5,11.1l.018.134a.393.393,0,0,0,.782-.051V4.851a.147.147,0,0,0-.147-.147H14.526a.147.147,0,0,0-.147.147v6.331a.394.394,0,0,0,.394.393h.434a.393.393,0,0,0,.39-.342l.017-.134a4.5,4.5,0,0,1,4.444-3.9" transform="translate(-0.552 -0.141)" fill="#344154"/>
          <path id="Trazado_187113" data-name="Trazado 187113" d="M34.956,58.152H3.622A3.625,3.625,0,0,1,0,54.531V9.592A3.626,3.626,0,0,1,3.622,5.97h9.3a.69.69,0,1,1,0,1.381h-9.3A2.243,2.243,0,0,0,1.381,9.592v44.94a2.243,2.243,0,0,0,2.241,2.24H34.956a2.243,2.243,0,0,0,2.241-2.24V9.592a2.243,2.243,0,0,0-2.241-2.241H25.44a.69.69,0,0,1,0-1.381h9.516a3.626,3.626,0,0,1,3.622,3.622v44.94a3.625,3.625,0,0,1-3.622,3.621" transform="translate(0 -0.253)" fill="#344154"/>
          <path id="Trazado_187114" data-name="Trazado 187114" d="M27.3,54H5.225a.691.691,0,0,1-.69-.69V11.2a.691.691,0,0,1,.69-.69H9.8a.69.69,0,1,1,0,1.381H5.916V52.622h21.1l6.031-6.031V11.886H29.164a.69.69,0,0,1,0-1.381h4.574a.69.69,0,0,1,.689.69V46.877a.693.693,0,0,1-.2.488L27.791,53.8a.693.693,0,0,1-.488.2" transform="translate(-0.192 -0.446)" fill="#344154"/>
          <path id="Trazado_187115" data-name="Trazado 187115" d="M12.967,34.26a.693.693,0,0,1-.488-.2l-1.666-1.666a.69.69,0,0,1,.977-.976l1.163,1.163,2.956-3.132a.69.69,0,0,1,1,.947l-3.443,3.649a.69.69,0,0,1-.492.216Z" transform="translate(-0.45 -1.24)" fill="#344154"/>
          <path id="Trazado_187116" data-name="Trazado 187116" d="M11.478,23.644a.69.69,0,0,1-.488-1.178L15.1,18.359a.69.69,0,0,1,.976.976l-4.106,4.107a.689.689,0,0,1-.488.2" transform="translate(-0.458 -0.77)" fill="#344154"/>
          <path id="Trazado_187117" data-name="Trazado 187117" d="M15.585,23.644a.689.689,0,0,1-.488-.2l-4.106-4.107a.69.69,0,0,1,.976-.976l4.107,4.107a.69.69,0,0,1-.488,1.178" transform="translate(-0.458 -0.77)" fill="#344154"/>
          <path id="Trazado_187118" data-name="Trazado 187118" d="M11.478,45.742a.69.69,0,0,1-.488-1.178L15.1,40.457a.69.69,0,0,1,.976.976L11.967,45.54a.689.689,0,0,1-.488.2" transform="translate(-0.458 -1.708)" fill="#344154"/>
          <path id="Trazado_187119" data-name="Trazado 187119" d="M15.585,45.742a.689.689,0,0,1-.488-.2l-4.106-4.107a.69.69,0,1,1,.976-.976l4.107,4.107a.69.69,0,0,1-.488,1.178" transform="translate(-0.458 -1.708)" fill="#344154"/>
          <path id="Trazado_187120" data-name="Trazado 187120" d="M30.7,24.045H18.817a.92.92,0,1,1,0-1.84H30.7a.92.92,0,0,1,0,1.84" transform="translate(-0.759 -0.942)" fill="#35b4cf"/>
          <path id="Trazado_187121" data-name="Trazado 187121" d="M30.7,34.892H18.817a.92.92,0,1,1,0-1.84H30.7a.92.92,0,1,1,0,1.84" transform="translate(-0.759 -1.402)" fill="#ffc524"/>
          <path id="Trazado_187122" data-name="Trazado 187122" d="M26.846,52.909a.691.691,0,0,1-.69-.69V47.024a.691.691,0,0,1,.69-.69H32.04a.69.69,0,0,1,0,1.381h-4.5v4.5a.691.691,0,0,1-.69.69" transform="translate(-1.11 -1.966)" fill="#344154"/>
        </g>
      </g>
    </g>
  </g>
</svg>
