<svg xmlns="http://www.w3.org/2000/svg" xmlns:xlink="http://www.w3.org/1999/xlink" width="114.636" height="114.636" viewBox="0 0 114.636 114.636">
  <defs>
    <radialGradient id="radial-gradient" cx="0.076" cy="0.019" r="1.465" gradientTransform="translate(0.001)" gradientUnits="objectBoundingBox">
      <stop offset="0" stop-color="#f6f6f7"/>
      <stop offset="0.477" stop-color="#f9f9fa"/>
      <stop offset="0.715" stop-color="#fff"/>
    </radialGradient>
    <clipPath id="clip-path">
      <rect id="Rectángulo_44022" data-name="Rectángulo 44022" width="61.201" height="55.84" fill="none"/>
    </clipPath>
  </defs>
  <g id="Grupo_148755" data-name="Grupo 148755" transform="translate(-269.991 -1116)">
    <g id="Grupo_148728" data-name="Grupo 148728" transform="translate(269.991 1116)">
      <g id="Grupo_18423" data-name="Grupo 18423" transform="translate(0 0)">
        <g id="Grupo_18421" data-name="Grupo 18421">
          <g id="Grupo_18420" data-name="Grupo 18420">
            <g id="Grupo_18419" data-name="Grupo 18419">
              <path id="Trazado_40936" data-name="Trazado 40936" d="M309.259,2203.037a57.318,57.318,0,1,1-57.317-57.316A57.317,57.317,0,0,1,309.259,2203.037Z" transform="translate(-194.623 -2145.721)" fill="#fff"/>
            </g>
          </g>
        </g>
        <path id="Trazado_40937" data-name="Trazado 40937" d="M308.648,2202.372a57.316,57.316,0,1,0-57.317,57.319A57.091,57.091,0,0,0,308.648,2202.372Z" transform="translate(-194.013 -2145.056)" fill="url(#radial-gradient)"/>
        <path id="Trazado_40938" data-name="Trazado 40938" d="M289.672,2196.986a43.75,43.75,0,1,0-43.75,43.75A43.587,43.587,0,0,0,289.672,2196.986Z" transform="translate(-188.43 -2139.479)" fill="none" stroke="#00223d" stroke-miterlimit="10" stroke-width="4"/>
        <g id="Grupo_18422" data-name="Grupo 18422" transform="translate(10.154 32.18)">
          <path id="Trazado_40939" data-name="Trazado 40939" d="M299.231,2164.488a57.325,57.325,0,0,1-98.686,57.081,57.143,57.143,0,0,0,98.686-57.081Z" transform="translate(-200.545 -2164.488)" fill="#eceef0"/>
        </g>
      </g>
    </g>
    <g id="Grupo_148740" data-name="Grupo 148740" transform="translate(296.991 1146)">
      <g id="Grupo_148739" data-name="Grupo 148739" transform="translate(0 0)" clip-path="url(#clip-path)">
        <path id="Trazado_187097" data-name="Trazado 187097" d="M37.536,57.43a.684.684,0,0,1-.5-.211L20.82,40.449a5.131,5.131,0,0,0-7.2-.215L1.156,51.667a.69.69,0,0,1-.933-1.017l12.47-11.435a6.506,6.506,0,0,1,9.121.274L38.032,56.26a.69.69,0,0,1-.5,1.17" transform="translate(0 -1.591)" fill="#344154"/>
        <path id="Trazado_187098" data-name="Trazado 187098" d="M62.456,45.563a.687.687,0,0,1-.5-.218L47.327,29.763a5.137,5.137,0,0,0-1.14-.914.69.69,0,1,1,.7-1.189,6.561,6.561,0,0,1,1.447,1.16L62.96,44.4a.69.69,0,0,1-.5,1.162" transform="translate(-1.945 -1.17)" fill="#344154"/>
        <path id="Trazado_187099" data-name="Trazado 187099" d="M24.88,42.853a.69.69,0,0,1-.477-1.189L38.13,28.555A6.532,6.532,0,0,1,39.75,27.42a.69.69,0,1,1,.612,1.237,5.157,5.157,0,0,0-1.278.9L25.357,42.662a.69.69,0,0,1-.477.191" transform="translate(-1.026 -1.161)" fill="#344154"/>
        <path id="Trazado_187100" data-name="Trazado 187100" d="M20.5,38.273a.691.691,0,0,1-.69-.69V17.324a.69.69,0,0,1,1.381,0V37.583a.691.691,0,0,1-.69.69" transform="translate(-0.841 -0.706)" fill="#344154"/>
        <path id="Trazado_187101" data-name="Trazado 187101" d="M24.88,42.706a.691.691,0,0,1-.69-.69V24.568a.69.69,0,1,1,1.381,0V42.015a.691.691,0,0,1-.69.69" transform="translate(-1.026 -1.014)" fill="#344154"/>
        <path id="Trazado_187102" data-name="Trazado 187102" d="M29.257,38.581a.691.691,0,0,1-.69-.69V24.568a.69.69,0,1,1,1.381,0V37.89a.691.691,0,0,1-.69.69" transform="translate(-1.212 -1.014)" fill="#344154"/>
        <path id="Trazado_187103" data-name="Trazado 187103" d="M29.257,24.951a.691.691,0,0,1-.69-.69V17.324a.69.69,0,0,1,1.381,0v6.937a.691.691,0,0,1-.69.69" transform="translate(-1.212 -0.706)" fill="#344154"/>
        <path id="Trazado_187104" data-name="Trazado 187104" d="M24.706,9.269A4.635,4.635,0,1,1,29.34,4.635a4.639,4.639,0,0,1-4.635,4.635m0-7.888A3.254,3.254,0,1,0,27.96,4.635a3.257,3.257,0,0,0-3.254-3.254" transform="translate(-0.852 0)" fill="#344154"/>
        <path id="Trazado_187105" data-name="Trazado 187105" d="M17.04,24.7a.691.691,0,0,1-.69-.69V14.049a3.26,3.26,0,0,1,3.256-3.256h9.885a3.26,3.26,0,0,1,3.256,3.256v9a.69.69,0,0,1-1.381,0v-9a1.877,1.877,0,0,0-1.875-1.875H19.606a1.877,1.877,0,0,0-1.875,1.875v9.964a.691.691,0,0,1-.69.69" transform="translate(-0.694 -0.458)" fill="#344154"/>
        <path id="Trazado_187106" data-name="Trazado 187106" d="M28.886,25.259H20.5a.69.69,0,1,1,0-1.381h8.383a.69.69,0,1,1,0,1.381" transform="translate(-0.841 -1.014)" fill="#344154"/>
        <path id="Trazado_187107" data-name="Trazado 187107" d="M24.88,16.745a.691.691,0,0,1-.69-.69V11.483a.69.69,0,0,1,1.381,0v4.571a.691.691,0,0,1-.69.69" transform="translate(-1.026 -0.458)" fill="#344154"/>
        <path id="Trazado_187108" data-name="Trazado 187108" d="M57.931,20.783H51.867a.69.69,0,1,1,0-1.381H57.24V13.644H53.173a3.075,3.075,0,0,1-2.992-2.381H44.344v5.759H50.1v-2.3a.69.69,0,0,1,1.381,0v2.987a.69.69,0,0,1-.69.689H43.653a.69.69,0,0,1-.69-.689V10.574a.691.691,0,0,1,.69-.69h7.139a.691.691,0,0,1,.69.69,1.692,1.692,0,0,0,1.69,1.69h4.758a.69.69,0,0,1,.69.689v7.139a.691.691,0,0,1-.69.69" transform="translate(-1.823 -0.42)" fill="#344154"/>
        <path id="Trazado_187109" data-name="Trazado 187109" d="M43.653,31.642a.691.691,0,0,1-.69-.69V18.029a.69.69,0,0,1,1.381,0V30.952a.691.691,0,0,1-.69.69" transform="translate(-1.823 -0.736)" fill="#344154"/>
        <path id="Trazado_187110" data-name="Trazado 187110" d="M17.468,41.094a3.08,3.08,0,0,0-2.088.819L8.354,48.355c1.02,1.2,2,2.451,3.487,2.84a5.936,5.936,0,0,0,3.742-.557,16.032,16.032,0,0,1,3.6-1.335c2.455-.395,4.83.853,7.192,1.63a19.179,19.179,0,0,0,2.52.634l-9.211-9.525a3.08,3.08,0,0,0-2.22-.948" transform="translate(-0.354 -1.744)" fill="#ffc524"/>
      </g>
    </g>
  </g>
</svg>
